<?xml version="1.0" encoding="UTF-8"?>
<svg id="Layer_1" xmlns="http://www.w3.org/2000/svg" version="1.1" viewBox="0 0 144 28">
  <!-- Generator: Adobe Illustrator 29.4.0, SVG Export Plug-In . SVG Version: 2.1.0 Build 152)  -->
  <defs>
    <style>
      .st0 {
        fill: #e50914;
      }

      .st0, .st1 {
        fill-rule: evenodd;
      }

      .st1 {
        fill: #f7f5f5;
      }
    </style>
  </defs>
  <path class="st0" d="M67.87,0h-4.3v24.54c3.9.14,7.79.34,11.66.6v-4.32c-2.45-.17-4.9-.31-7.37-.42V0ZM102,0h-4.72l-3.11,7.36L91.38,0h-4.65l4.99,13.16-5.45,12.91c1.51.15,3.01.31,4.51.48l3.17-7.5,3.14,8.28c1.64.21,3.27.44,4.9.68h0s-5.6-14.75-5.6-14.75L102,0h0ZM48.83,24.33h4.29v-9.98h5.82v-4.32h-5.82v-5.65h7.7V0h-11.99v24.32h0ZM32.79,4.36h4.5v20.22c1.43-.06,2.86-.1,4.29-.14V4.37h4.5V0h-13.29v4.36h0ZM18.1,25.84c3.96-.37,7.94-.67,11.93-.91v-4.32c-2.55.15-5.1.33-7.64.53v-6.55c1.66-.02,3.86-.07,5.8-.04v-4.32c-1.55,0-4.05.02-5.8.05v-5.91h7.64V0h-11.93v25.84h0ZM9.68,15.84L4.08,0H0v28c1.43-.21,2.86-.41,4.3-.6v-15.22l4.97,14.6c1.56-.19,3.13-.36,4.7-.53V0h-4.3v15.84h0ZM78.77,25.4c1.43.11,2.87.23,4.3.36V0h-4.29v25.4h0Z"/>
  <path class="st1" d="M112.72,17.98c.88,0,1.61-.27,2.12-.78.52-.52.76-1.2.76-2.17v-4.88h-2.13v4.87c0,.72-.34,1.08-.87,1.08-.49,0-.84-.26-1.22-.71l-1.38,1.3c.55.74,1.37,1.3,2.72,1.3ZM122.07,18c-2.39,0-4.16-1.77-4.16-3.98v-.02c0-2.21,1.79-4,4.18-4s4.16,1.77,4.16,3.98v.02c0,2.21-1.79,4-4.18,4ZM122.09,16.08c1.17,0,1.96-.95,1.96-2.06v-.02c0-1.12-.8-2.08-1.98-2.08s-1.97.94-1.97,2.06v.02c0,1.11.81,2.08,1.99,2.08ZM128.64,17.85v-7.69h3.97c.97,0,1.66.24,2.11.68.31.32.5.73.5,1.25v.02c0,.89-.51,1.42-1.19,1.71.94.31,1.54.84,1.54,1.88v.02c0,1.32-1.08,2.12-2.93,2.12h-3.99,0ZM133.1,12.55v-.02c0-.43-.34-.66-.97-.66h-1.4v1.35h1.35c.65,0,1.03-.22,1.03-.67ZM133.41,15.41c0-.42-.33-.69-1.05-.69h-1.64v1.42h1.66c.66,0,1.03-.25,1.03-.7v-.02ZM140.87,17.98c1.88,0,3.13-.93,3.13-2.51v-.02c0-1.44-1.1-2.01-2.87-2.4-1.08-.24-1.35-.4-1.35-.75v-.02c0-.29.25-.49.77-.49.69,0,1.46.25,2.17.76l1.07-1.51c-.84-.67-1.87-1.02-3.18-1.02-1.85,0-2.99,1.03-2.99,2.46v.02c0,1.57,1.27,2.03,2.92,2.41,1.06.26,1.32.42,1.32.75v.02c0,.33-.31.53-.9.53-.89,0-1.74-.32-2.51-.92l-1.19,1.42c.96.85,2.26,1.27,3.63,1.27h0Z"/>
</svg>